<svg xmlns="http://www.w3.org/2000/svg" width="400" height="400" viewBox="0 0 400 400">
  <polygon points="120,80 180,100 160,140 100,120" fill="#fda4af" transform="rotate(15)"/>
  <path d="M280 105 A35 35 0 1 1 280 175 A35 35 0 1 1 280 105" fill="#ffe4e6"/>
  <polygon points="180,220 260,220 260,300 180,300" fill="#fff1f2" stroke="#fda4af" stroke-width="3"/>
  <path d="M100 205 A45 45 0 1 1 100 295 A45 45 0 1 1 100 205" fill="#fda4af" opacity="0.7"/>
  <polygon points="240,180 280,180 280,220 240,220" fill="#ffe4e6" transform="rotate(-20)"/>
  <path d="M160 135 A25 25 0 1 1 160 185 A25 25 0 1 1 160 135" fill="#fff1f2" stroke="#fda4af" stroke-width="3"/>
  <polygon points="80,160 130,160 130,210 80,210" fill="#ffe4e6" opacity="0.5"/>
</svg>