<svg xmlns="http://www.w3.org/2000/svg" width="400" height="400" viewBox="0 0 400 400">
  <!-- Empty Document Stack -->
  <g transform="translate(150, 150)">
    <!-- Bottom Document -->
    <rect x="0" y="20" width="120" height="140" fill="#f1f5f9" stroke="#fb923c" stroke-width="2" rx="4"/>
    <line x1="20" y1="50" x2="100" y2="50" stroke="#fb923c" stroke-width="2"/>
    <line x1="20" y1="70" x2="100" y2="70" stroke="#fb923c" stroke-width="2"/>
    <line x1="20" y1="90" x2="80" y2="90" stroke="#fb923c" stroke-width="2"/>
    
    <!-- Middle Document -->
    <rect x="-10" y="10" width="120" height="140" fill="#f8fafc" stroke="#f97316" stroke-width="2" rx="4"/>
    <line x1="10" y1="40" x2="90" y2="40" stroke="#f97316" stroke-width="2"/>
    <line x1="10" y1="60" x2="90" y2="60" stroke="#f97316" stroke-width="2"/>
    <line x1="10" y1="80" x2="70" y2="80" stroke="#f97316" stroke-width="2"/>
    
    <!-- Top Document -->
    <rect x="-20" y="0" width="120" height="140" fill="#fff" stroke="#ea580c" stroke-width="2" rx="4"/>
    <line x1="0" y1="30" x2="80" y2="30" stroke="#ea580c" stroke-width="2"/>
    <line x1="0" y1="50" x2="80" y2="50" stroke="#ea580c" stroke-width="2"/>
    <line x1="0" y1="70" x2="60" y2="70" stroke="#ea580c" stroke-width="2"/>
  </g>

  <!-- Decorative Elements -->
  <circle cx="100" cy="100" r="5" fill="#ea580c" opacity="0.5"/>
  <circle cx="300" cy="300" r="5" fill="#ea580c" opacity="0.5"/>
  <circle cx="100" cy="300" r="5" fill="#ea580c" opacity="0.5"/>
  <circle cx="300" cy="100" r="5" fill="#ea580c" opacity="0.5"/>
  
  <!-- Connecting Lines -->
  <path d="M100 100 Q 200 150 300 100" stroke="#f97316" stroke-width="2" fill="none" opacity="0.3"/>
  <path d="M100 300 Q 200 250 300 300" stroke="#f97316" stroke-width="2" fill="none" opacity="0.3"/>
  <path d="M100 100 Q 150 200 100 300" stroke="#f97316" stroke-width="2" fill="none" opacity="0.3"/>
  <path d="M300 100 Q 250 200 300 300" stroke="#f97316" stroke-width="2" fill="none" opacity="0.3"/>
</svg>